<?xml version="1.0" encoding="utf-8"?><svg xmlns="http://www.w3.org/2000/svg" xmlns:xlink="http://www.w3.org/1999/xlink"><style>:root>svg{display:none}:root>svg:target{display:block}</style><svg viewBox="0 0 24 24" id="angle-down" xmlns="http://www.w3.org/2000/svg"><g fill="none" fill-rule="evenodd"><path d="M0 0h24v24H0z"/><path fill="currentColor" d="m12 13.5 5-5 1.5 1.5-6.5 6.5L5.5 10 7 8.5z"/></g></svg><svg viewBox="0 0 24 24" id="angle-left" xmlns="http://www.w3.org/2000/svg"><g fill="none" fill-rule="evenodd"><path d="M24 0v24H0V0z"/><path fill="currentColor" d="m10.5 12 5 5-1.5 1.5L7.5 12 14 5.5 15.5 7z"/></g></svg><svg viewBox="0 0 24 24" id="angle-right" xmlns="http://www.w3.org/2000/svg"><g fill="none" fill-rule="evenodd"><path d="M0 24V0h24v24z"/><path fill="currentColor" d="m13.5 12-5-5L10 5.5l6.5 6.5-6.5 6.5L8.5 17z"/></g></svg><svg viewBox="0 0 24 24" id="arrow-left" xmlns="http://www.w3.org/2000/svg"><g fill="none" fill-rule="evenodd"><path d="M0 0h24v24H0z"/><path fill="currentColor" d="M10 5.5 11.5 7l-4 4H20v2H7.5l4 4-1.5 1.5L3.5 12z"/></g></svg><svg viewBox="0 0 24 24" id="arrow-right" xmlns="http://www.w3.org/2000/svg"><g fill="none" fill-rule="evenodd"><path d="M0 0h24v24H0z"/><path fill="currentColor" d="M14 5.5 12.5 7l4 4H4v2h12.5l-4 4 1.5 1.5 6.5-6.5z"/></g></svg><svg viewBox="0 0 24 24" id="check" xmlns="http://www.w3.org/2000/svg"><path fill="#fff" d="M9 16.17 4.83 12l-1.42 1.41L9 19 21 7l-1.41-1.41z"/></svg><svg viewBox="0 0 24 24" id="cross" xmlns="http://www.w3.org/2000/svg"><g fill="none" fill-rule="evenodd"><path d="M0 0h24v24H0z"/><path fill="currentColor" d="M18 7.5 13.5 12l4.5 4.5-1.5 1.5-4.5-4.5L7.5 18 6 16.5l4.5-4.5L6 7.5 7.5 6l4.5 4.5L16.5 6z"/></g></svg><svg viewBox="0 0 24 24" id="cross-circle" xmlns="http://www.w3.org/2000/svg"><g fill="none" fill-rule="evenodd"><path d="M0 0h24v24H0z"/><path fill="currentColor" d="M12 2c5.523 0 10 4.477 10 10s-4.477 10-10 10S2 17.523 2 12 6.477 2 12 2m0 2a8 8 0 1 0 0 16 8 8 0 0 0 0-16m3 3.5L16.5 9l-3 3 3 3-1.5 1.5-3-3-3 3L7.5 15l3-3-3-3L9 7.5l3 3z"/></g></svg><svg viewBox="0 0 24 24" id="cross-circle-fill" xmlns="http://www.w3.org/2000/svg"><g fill="none" fill-rule="evenodd"><path d="M0 0h24v24H0z"/><path fill="currentColor" d="M12 3a9 9 0 1 0 0 18 9 9 0 0 0 0-18m3 4.5L16.5 9l-3 3 3 3-1.5 1.5-3-3-3 3L7.5 15l3-3-3-3L9 7.5l3 3z"/></g></svg><svg viewBox="0 0 24 24" id="info-circle" xmlns="http://www.w3.org/2000/svg"><g fill="none" fill-rule="evenodd"><path d="M0 0h24v24H0z"/><path fill="currentColor" d="M12 2c5.523 0 10 4.477 10 10s-4.477 10-10 10S2 17.523 2 12 6.477 2 12 2m0 2a8 8 0 1 0 0 16 8 8 0 0 0 0-16m1 6v6.5h2V18H9v-1.5h2v-5H9V10zm-1.187-4a1.312 1.312 0 1 1 0 2.625 1.312 1.312 0 0 1 0-2.625"/></g></svg><svg preserveAspectRatio="xMidYMid" style="margin:auto;background:0 0;display:block;shape-rendering:auto" viewBox="0 0 100 100" id="loading-spinner" xmlns="http://www.w3.org/2000/svg"><circle cx="50" cy="50" r="32" fill="none" stroke="#bd2f00" stroke-dasharray="50.26548245743669 50.26548245743669" stroke-linecap="round" stroke-width="8"><animateTransform attributeName="transform" dur="1s" keyTimes="0;1" repeatCount="indefinite" type="rotate" values="0 50 50;360 50 50"/></circle></svg><svg viewBox="0 0 24 24" id="map_marker" xmlns="http://www.w3.org/2000/svg"><g fill="none" fill-rule="evenodd"><path d="M0 0h24v24H0z"/><path fill="#bd2f00" d="M11.967 1.5c2.06 0 4.12.778 5.69 2.334 3.143 3.111 2.93 7.96 0 11.268l-.622.709c-2.612 2.991-4.066 4.96-5.068 6.937-1.073-2.13-2.682-4.249-5.689-7.646-2.93-3.308-3.143-8.157 0-11.268A8.06 8.06 0 0 1 11.967 1.5m.032 2a6.07 6.07 0 0 0-4.3 1.762A5.6 5.6 0 0 0 6.002 9.41c.02 1.573.648 3.134 1.766 4.398l.66.752c1.59 1.823 2.717 3.239 3.573 4.503.975-1.437 2.292-3.063 4.233-5.255C17.352 12.544 17.98 10.983 18 9.41a5.62 5.62 0 0 0-1.698-4.15 6.08 6.08 0 0 0-4.303-1.76M12 6a3.5 3.5 0 1 1 0 6.999A3.5 3.5 0 0 1 12 6m0 2c-.827 0-1.5.673-1.5 1.5S11.173 11 12 11s1.5-.673 1.5-1.5S12.827 8 12 8"/></g></svg><svg xml:space="preserve" viewBox="0 0 100 100" id="test" xmlns="http://www.w3.org/2000/svg"><path d="M50 10c22.1 0 40 17.9 40 40S72.1 90 50 90 10 72.1 10 50s17.9-40 40-40m0-10C22.4 0 0 22.4 0 50s22.4 50 50 50 50-22.4 50-50S77.6 0 50 0"/><path d="M63.1 72.9c-.7.6-1.8 1.3-3.4 2.1s-3.6 1.2-5.8 1.2c-3.3 0-6-.9-8-2.7s-3-4.7-3-8.8V45.5h-6.1v-8.1H43v-7.7l10.6-5.9v13.6h8.6v8.1h-8.6v18.3c0 1.5.2 2.5.7 3.1s1.1.9 2 .9c.8 0 1.4-.3 1.9-.8.5-.6.8-1.1 1.1-1.6z"/></svg><svg viewBox="0 0 24 24" id="user" xmlns="http://www.w3.org/2000/svg"><g fill="none" fill-rule="evenodd"><path d="M0 0h24v24H0z"/><path fill="#bd2f00" d="M16.267 13a4.733 4.733 0 0 1 4.728 4.517l.005.216V22H3v-4.267a4.733 4.733 0 0 1 4.517-4.728L7.733 13zm-8.534 2a2.733 2.733 0 0 0-2.728 2.567L5 17.733V20h14v-2.267c0-1.416-1.107-2.636-2.46-2.726l-.163-.005zM12 2a5 5 0 1 1 0 10 5 5 0 0 1 0-10m0 2a3 3 0 1 0 0 6 3 3 0 0 0 0-6"/></g></svg></svg>