<svg xmlns="http://www.w3.org/2000/svg" width="290.756" height="425.805" viewBox="0 0 76.929 112.661"><path d="M85.923 55.879a38.46 38.46 0 0 0-28.986 13.22c-3.247 3.5-5.982 7.978-7.668 13.616q-.13.42-.25.845l-.08.297a38.5 38.5 0 0 0-1.48 10.487q.008.267.02.535c-.34 18.988 9.097 33.179 38.444 73.66 29.42-40.58 38.838-54.816 38.45-73.806l.015-.39c0-3.986-.62-7.948-1.837-11.744-1.567-5.184-4.03-9.37-6.955-12.728A38.47 38.47 0 0 0 85.923 55.88" style="fill:#d40f00;fill-opacity:1;fill-rule:evenodd;stroke:none;stroke-width:2.08564;stroke-linecap:round;stroke-linejoin:round;paint-order:fill markers stroke" transform="translate(-47.459 -55.879)"/><path d="M107.719 94.138a21.796 21.796 0 0 1-21.796 21.796 21.796 21.796 0 0 1-21.796-21.796 21.796 21.796 0 0 1 21.796-21.795 21.796 21.796 0 0 1 21.796 21.795" style="fill:#fff;fill-rule:evenodd;stroke-width:1.163;stroke-linecap:round;stroke-linejoin:round;paint-order:fill markers stroke" transform="translate(-47.459 -55.879)"/></svg>